<svg width="42" height="42" viewBox="0 0 42 42" fill="none" xmlns="http://www.w3.org/2000/svg">
<path d="M13.1679 25.6153V33.3076M21.0314 25.6153V33.3076M28.8949 25.6153V33.3076M37.8908 17.9231H4.17211C3.72227 17.9193 3.27685 18.01 2.8659 18.1891C2.45495 18.3681 2.08803 18.6312 1.7899 18.9608C1.49178 19.2903 1.26938 19.6786 1.13773 20.0994C1.00607 20.5201 0.96821 20.9637 1.02671 21.4L3.32285 38.3229C3.42266 39.0678 3.79763 39.7512 4.37704 40.2444C4.95645 40.7375 5.70027 41.0062 6.46825 40.9998H35.5317C36.2997 41.0062 37.0435 40.7375 37.623 40.2444C38.2024 39.7512 38.5773 39.0678 38.6771 38.3229L40.9733 21.4C41.0311 20.9688 40.9948 20.5305 40.8669 20.114C40.7389 19.6976 40.5221 19.3124 40.2309 18.9838C39.9396 18.6553 39.5804 18.3909 39.1771 18.2081C38.7737 18.0252 38.3353 17.9281 37.8908 17.9231Z" stroke="#898D91" stroke-width="2" stroke-linecap="round" stroke-linejoin="round"/>
<path d="M28.8323 4.20056C30.7165 4.51898 32.4428 5.43067 33.7486 6.79696C35.0545 8.16324 35.8684 9.90936 36.0667 11.7697L36.7587 17.9235M5.30469 17.9235L5.99668 11.7697C6.2078 9.92039 7.0275 8.18824 8.3323 6.83417C9.6371 5.48009 11.3563 4.57741 13.2311 4.2621" stroke="#898D91" stroke-width="2" stroke-linecap="round" stroke-linejoin="round"/>
<path d="M28.893 4.84612C28.893 5.3512 28.7913 5.85133 28.5937 6.31796C28.3961 6.7846 28.1065 7.20859 27.7414 7.56573C27.3763 7.92288 26.9429 8.20618 26.4659 8.39947C25.9889 8.59275 25.4776 8.69224 24.9613 8.69224H17.0978C16.055 8.69224 15.0549 8.28702 14.3176 7.56573C13.5803 6.84445 13.166 5.86617 13.166 4.84612C13.166 3.82606 13.5803 2.84779 14.3176 2.1265C15.0549 1.40521 16.055 1 17.0978 1H24.9613C26.004 1 27.0041 1.40521 27.7414 2.1265C28.4788 2.84779 28.893 3.82606 28.893 4.84612Z" stroke="#898D91" stroke-width="2" stroke-linecap="round" stroke-linejoin="round"/>
</svg>
