<svg width="88" height="72" viewBox="0 0 88 72" fill="none" xmlns="http://www.w3.org/2000/svg">
<path d="M80.2353 72H7.76471C3.36471 72 0 68.6452 0 64.2581V17.8064C0 13.4194 3.36471 10.0645 7.76471 10.0645H23.2941C23.8118 10.0645 24.5882 9.54839 24.8471 9.29032L27.6941 3.6129C28.7294 1.54839 31.3176 0 33.6471 0H54.3529C56.6824 0 59.2706 1.54839 60.3059 3.6129L63.1529 9.29032C63.4118 9.80645 64.1882 10.0645 64.7059 10.0645H80.2353C84.6353 10.0645 88 13.4194 88 17.8064V64.2581C88 68.6452 84.6353 72 80.2353 72ZM7.76471 15.2258C6.21176 15.2258 5.17647 16.2581 5.17647 17.8064V64.2581C5.17647 65.8064 6.21176 66.8387 7.76471 66.8387H80.2353C81.7882 66.8387 82.8235 65.8064 82.8235 64.2581V17.8064C82.8235 16.2581 81.7882 15.2258 80.2353 15.2258H64.7059C62.3765 15.2258 59.7882 13.6774 58.7529 11.6129L55.9059 5.93548C55.6471 5.41935 54.8706 4.90322 54.3529 4.90322H33.6471C33.1294 4.90322 32.3529 5.41935 32.0941 5.67742L29.2471 11.3548C28.2118 13.6774 25.6235 15.2258 23.2941 15.2258H7.76471Z" fill="#D7D7D7"/>
<path d="M44.0002 61.6776C31.059 61.6776 20.7061 51.355 20.7061 38.4518C20.7061 25.5485 31.059 15.226 44.0002 15.226C56.9413 15.226 67.2943 25.5485 67.2943 38.4518C67.2943 51.355 56.9413 61.6776 44.0002 61.6776ZM44.0002 20.3872C33.9061 20.3872 25.8825 28.3872 25.8825 38.4518C25.8825 48.5163 33.9061 56.5163 44.0002 56.5163C54.0943 56.5163 62.1178 48.5163 62.1178 38.4518C62.1178 28.3872 54.0943 20.3872 44.0002 20.3872Z" fill="#D7D7D7"/>
<path d="M69.8822 22.9679C71.3116 22.9679 72.4704 21.8125 72.4704 20.3873C72.4704 18.962 71.3116 17.8066 69.8822 17.8066C68.4527 17.8066 67.2939 18.962 67.2939 20.3873C67.2939 21.8125 68.4527 22.9679 69.8822 22.9679Z" fill="#D7D7D7"/>
<path d="M10.3535 4.9032H20.7065V7.48384H10.3535V4.9032ZM44.0006 28.129V25.5484C36.7535 25.5484 31.0594 31.2258 31.0594 38.4516H33.6476C33.6476 32.7742 38.3065 28.129 44.0006 28.129Z" fill="#D7D7D7"/>
</svg>
