<svg width="18" height="17" viewBox="0 0 18 17" fill="none" xmlns="http://www.w3.org/2000/svg">
<path d="M8.56135 14.275L4.41135 16.775C4.22802 16.8917 4.03635 16.9417 3.83635 16.925C3.63635 16.9083 3.46135 16.8417 3.31135 16.725C3.16135 16.6083 3.04468 16.4627 2.96135 16.288C2.87802 16.1127 2.86135 15.9167 2.91135 15.7L4.01135 10.975L0.33635 7.80001C0.169683 7.65001 0.065683 7.47901 0.0243497 7.28701C-0.0176503 7.09568 -0.00531702 6.90835 0.0613497 6.72501C0.128016 6.54168 0.228016 6.39168 0.36135 6.27501C0.494683 6.15835 0.678016 6.08335 0.91135 6.05001L5.76135 5.62501L7.63635 1.17501C7.71968 0.975013 7.84902 0.825012 8.02435 0.725012C8.19902 0.625012 8.37802 0.575012 8.56135 0.575012C8.74468 0.575012 8.92402 0.625012 9.09935 0.725012C9.27402 0.825012 9.40302 0.975013 9.48635 1.17501L11.3614 5.62501L16.2113 6.05001C16.4447 6.08335 16.628 6.15835 16.7614 6.27501C16.8947 6.39168 16.9947 6.54168 17.0613 6.72501C17.128 6.90835 17.1407 7.09568 17.0993 7.28701C17.0574 7.47901 16.953 7.65001 16.7864 7.80001L13.1113 10.975L14.2113 15.7C14.2613 15.9167 14.2447 16.1127 14.1614 16.288C14.078 16.4627 13.9613 16.6083 13.8113 16.725C13.6614 16.8417 13.4864 16.9083 13.2864 16.925C13.0864 16.9417 12.8947 16.8917 12.7113 16.775L8.56135 14.275Z" fill="#FFD233"/>
</svg>
