<svg width="20" height="20" viewBox="0 0 20 20" fill="none" xmlns="http://www.w3.org/2000/svg">
<path d="M9.99859 9C10.2638 9 10.5182 9.10536 10.7057 9.29289C10.8932 9.48043 10.9986 9.73478 10.9986 10V16.584L12.2916 15.292C12.4794 15.1045 12.7339 14.9993 12.9993 14.9994C13.2647 14.9996 13.5191 15.1052 13.7066 15.293C13.8941 15.4808 13.9993 15.7353 13.9991 16.0007C13.999 16.2661 13.8934 16.5205 13.7056 16.708L10.8816 19.527C10.6286 19.779 10.3816 20 9.99859 20C9.66259 20 9.43259 19.831 9.21059 19.62L6.29159 16.708C6.10382 16.5205 5.99822 16.2661 5.99804 16.0007C5.99785 15.7353 6.10308 15.4808 6.29059 15.293C6.4781 15.1052 6.73252 14.9996 6.99789 14.9994C7.26325 14.9993 7.51782 15.1045 7.70559 15.292L8.99859 16.584V10C8.99859 9.73478 9.10395 9.48043 9.29149 9.29289C9.47902 9.10536 9.73338 9 9.99859 9ZM9.49859 2.26951e-08C12.2826 2.26951e-08 14.6586 1.75 15.5846 4.212C16.8182 4.55118 17.9111 5.27559 18.7041 6.2796C19.497 7.2836 19.9485 8.51468 19.9926 9.79329C20.0367 11.0719 19.6711 12.3311 18.9492 13.3874C18.2273 14.4436 17.1869 15.2416 15.9796 15.665C15.9049 14.9897 15.6023 14.3601 15.1216 13.88C14.6105 13.3666 13.9303 13.0564 13.2076 13.007L12.9986 13V10C12.9993 9.2191 12.6956 8.46867 12.1518 7.90818C11.6081 7.34769 10.8672 7.02132 10.0866 6.9984C9.30606 6.97548 8.54732 7.25784 7.97162 7.78546C7.39593 8.31309 7.04865 9.0444 7.00359 9.824L6.99859 10V13C6.60417 12.9994 6.21353 13.0769 5.84917 13.2279C5.48481 13.3789 5.15393 13.6005 4.87559 13.88C4.33765 14.4176 4.02476 15.1399 4.00059 15.9C2.95952 15.6873 2.01324 15.1485 1.29891 14.3619C0.584587 13.5752 0.139333 12.5815 0.0276906 11.5248C-0.083952 10.4681 0.143817 9.4033 0.677984 8.48474C1.21215 7.56618 2.02496 6.84159 2.99859 6.416C3.02068 4.70669 3.71524 3.07489 4.93184 1.87401C6.14844 0.673134 7.78914 -0.000142727 9.49859 2.26951e-08Z" fill="#AFDCAB"/>
</svg>
