<svg width="40" height="40" viewBox="0 0 40 40" fill="none" xmlns="http://www.w3.org/2000/svg">
<circle cx="20" cy="20" r="20" fill="#FCFCFC"/>
<path d="M11.8519 13.6154H15L15.75 11.4951C15.8018 11.35 15.8968 11.2246 16.0219 11.1359C16.147 11.0473 16.2962 10.9999 16.4491 11H23.5509C23.8634 11 24.1435 11.1985 24.2477 11.4951L25 13.6154H28.1481C29.1713 13.6154 30 14.4514 30 15.4835V26.1319C30 27.164 29.1713 28 28.1481 28H11.8519C10.8287 28 10 27.164 10 26.1319V15.4835C10 14.4514 10.8287 13.6154 11.8519 13.6154ZM11.6667 26.1319C11.6667 26.2346 11.75 26.3187 11.8519 26.3187H28.1481C28.25 26.3187 28.3333 26.2346 28.3333 26.1319V15.4835C28.3333 15.3808 28.25 15.2967 28.1481 15.2967H23.8264L23.4306 14.1805L22.9005 12.6813H17.1019L16.5718 14.1805L16.1759 15.2967H11.8519C11.75 15.2967 11.6667 15.3808 11.6667 15.4835V26.1319ZM20 16.7912C22.0463 16.7912 23.7037 18.4632 23.7037 20.5275C23.7037 22.5918 22.0463 24.2637 20 24.2637C17.9537 24.2637 16.2963 22.5918 16.2963 20.5275C16.2963 18.4632 17.9537 16.7912 20 16.7912ZM20 22.7692C21.2269 22.7692 22.2222 21.7651 22.2222 20.5275C22.2222 19.2898 21.2269 18.2857 20 18.2857C18.7731 18.2857 17.7778 19.2898 17.7778 20.5275C17.7778 21.7651 18.7731 22.7692 20 22.7692Z" fill="#AFDCAB"/>
</svg>
