<svg width="34" height="34" viewBox="0 0 34 34" fill="none" xmlns="http://www.w3.org/2000/svg">
<path d="M33.6903 32.1853L23.4007 21.795C25.3185 19.4897 26.4744 16.5239 26.4744 13.2854C26.4744 5.94816 20.5478 0 13.2372 0C5.92655 0 0 5.94816 0 13.2854C0 20.6227 5.92655 26.5709 13.2372 26.5709C16.5586 26.5709 19.5926 25.3401 21.9171 23.3112L32.1923 33.6887C32.6058 34.1038 33.2767 34.1038 33.6902 33.6887C34.1032 33.2737 34.1033 32.6009 33.6903 32.1853ZM13.2372 24.4627C7.08665 24.4627 2.10048 19.4584 2.10048 13.2854C2.10048 7.11249 7.08665 2.10813 13.2372 2.10813C19.3877 2.10813 24.3739 7.11249 24.3739 13.2854C24.3739 19.4584 19.3877 24.4627 13.2372 24.4627Z" fill="#AFDCAB"/>
</svg>
