<svg width="54" height="52" viewBox="0 0 54 52" fill="none" xmlns="http://www.w3.org/2000/svg">
<path d="M27.1523 0.0716553C23.6589 0.0716553 20.1998 0.759724 16.9723 2.09658C13.7449 3.43343 10.8124 5.39288 8.34219 7.86306C3.35343 12.8518 0.550781 19.618 0.550781 26.6732C0.550781 38.431 8.18542 48.4066 18.7462 51.9446C20.0763 52.1574 20.5019 51.3328 20.5019 50.6145V46.1189C13.1333 47.715 11.5638 42.5543 11.5638 42.5543C10.3401 39.4685 8.61104 38.6439 8.61104 38.6439C6.1903 36.9946 8.79725 37.0478 8.79725 37.0478C11.4574 37.234 12.8673 39.7877 12.8673 39.7877C15.1816 43.8312 19.092 42.6341 20.6083 41.9957C20.8477 40.2666 21.5394 39.0961 22.2842 38.431C16.3787 37.766 10.1805 35.4783 10.1805 25.3431C10.1805 22.3903 11.1914 20.0228 12.9205 18.1341C12.6545 17.469 11.7234 14.7025 13.1865 11.1113C13.1865 11.1113 15.421 10.393 20.5019 13.8246C22.6034 13.2394 24.8912 12.9468 27.1523 12.9468C29.4134 12.9468 31.7012 13.2394 33.8027 13.8246C38.8836 10.393 41.1181 11.1113 41.1181 11.1113C42.5812 14.7025 41.6501 17.469 41.3841 18.1341C43.1132 20.0228 44.1241 22.3903 44.1241 25.3431C44.1241 35.5049 37.8993 37.7394 31.9672 38.4044C32.9248 39.2291 33.8027 40.8518 33.8027 43.3257V50.6145C33.8027 51.3328 34.2283 52.184 35.585 51.9446C46.1458 48.38 53.7538 38.431 53.7538 26.6732C53.7538 23.1798 53.0658 19.7207 51.7289 16.4932C50.3921 13.2658 48.4326 10.3332 45.9624 7.86306C43.4922 5.39288 40.5597 3.43343 37.3323 2.09658C34.1048 0.759724 30.6457 0.0716553 27.1523 0.0716553Z" fill="#AFDCAB"/>
</svg>
