<svg width="48" height="50" viewBox="0 0 48 50" fill="none" xmlns="http://www.w3.org/2000/svg">
<path d="M30.7246 0.22708L3.1558 2.261C0.93219 2.45359 0.158203 3.90525 0.158203 5.64552V35.837C0.158203 37.1924 0.639733 38.3521 1.8023 39.9016L8.28274 48.3196C9.34732 49.675 10.3154 49.9653 12.3483 49.8691L44.3628 47.9331C47.0698 47.7405 47.8455 46.4814 47.8455 44.3528V10.3872C47.8455 9.28721 47.4103 8.97031 46.1299 8.03132L45.9091 7.87203L37.1103 1.67873C34.9811 0.132549 34.1112 -0.063213 30.7246 0.22708ZM13.0723 9.83133C10.4583 10.0072 9.86536 10.047 8.38072 8.84079L4.60579 5.84128C4.22205 5.45311 4.41467 4.96854 5.38127 4.87233L31.8839 2.93797C34.1093 2.74389 35.2685 3.51856 36.1388 4.19554L40.6842 7.48553C40.8785 7.58323 41.3619 8.16233 40.7805 8.16233L13.4112 9.80807L13.0723 9.83133ZM10.0248 44.0625V15.2282C10.0248 13.9689 10.4117 13.3884 11.5709 13.2905L43.006 11.4521C44.0722 11.3559 44.554 12.0327 44.554 13.2905V41.9322C44.554 43.1914 44.3595 44.2564 42.6191 44.3528L12.5375 46.0947C10.7971 46.191 10.0248 45.612 10.0248 44.0625ZM39.7195 16.7742C39.9121 17.6452 39.7195 18.5163 38.8475 18.6159L37.3977 18.9028V40.1917C36.1388 40.8685 34.9796 41.2552 34.0112 41.2552C32.4636 41.2552 32.0765 40.7707 30.9173 39.3207L21.436 24.4191V38.8363L24.4351 39.5148C24.4351 39.5148 24.4351 41.2569 22.0156 41.2569L15.3442 41.6434C15.1499 41.2552 15.3442 40.2879 16.0204 40.0955L17.7623 39.6126V20.5504L15.3444 20.3547C15.1499 19.4838 15.6331 18.226 16.9885 18.1281L24.1464 17.6471L34.0113 32.7411V19.3876L31.497 19.0988C31.3027 18.0319 32.0765 17.2573 33.0431 17.1627L39.7193 16.7744L39.7195 16.7742Z" fill="#AFDCAB"/>
</svg>
