<svg width="30" height="30" viewBox="0 0 30 30" fill="none" xmlns="http://www.w3.org/2000/svg">
<path d="M28.0909 0H19.3636C18.4939 0.000752101 17.6383 0.257678 16.8757 0.7471C16.1131 1.23652 15.4681 1.94269 15 2.80053C14.5319 1.94269 13.8869 1.23652 13.1243 0.7471C12.3617 0.257678 11.5061 0.000752101 10.6364 0H1.90909C1.40277 0 0.917184 0.235372 0.55916 0.654336C0.201136 1.0733 0 1.64154 0 2.23404V22.6596C0 23.2521 0.201136 23.8203 0.55916 24.2393C0.917184 24.6582 1.40277 24.8936 1.90909 24.8936H10.6364C11.5767 24.8936 12.4785 25.3307 13.1434 26.1088C13.8083 26.8869 14.1818 27.9422 14.1818 29.0426C14.1818 29.2965 14.268 29.54 14.4215 29.7196C14.5749 29.8991 14.783 30 15 30C15.217 30 15.4251 29.8991 15.5785 29.7196C15.732 29.54 15.8182 29.2965 15.8182 29.0426C15.8182 27.9422 16.1917 26.8869 16.8566 26.1088C17.5215 25.3307 18.4233 24.8936 19.3636 24.8936H28.0909C28.5972 24.8936 29.0828 24.6582 29.4408 24.2393C29.7989 23.8203 30 23.2521 30 22.6596V2.23404C30 1.64154 29.7989 1.0733 29.4408 0.654336C29.0828 0.235372 28.5972 0 28.0909 0ZM10.6364 22.9787H1.90909C1.83676 22.9787 1.76739 22.9451 1.71624 22.8852C1.6651 22.8254 1.63636 22.7442 1.63636 22.6596V2.23404C1.63636 2.1494 1.6651 2.06822 1.71624 2.00837C1.76739 1.94852 1.83676 1.91489 1.90909 1.91489H10.6364C11.5767 1.91489 12.4785 2.35201 13.1434 3.13009C13.8083 3.90817 14.1818 4.96346 14.1818 6.06383V24.6239C13.2228 23.5661 11.9543 22.9775 10.6364 22.9787ZM28.3636 22.6596C28.3636 22.7442 28.3349 22.8254 28.2838 22.8852C28.2326 22.9451 28.1632 22.9787 28.0909 22.9787H19.3636C18.0455 22.978 16.7771 23.5672 15.8182 24.6255V6.06383C15.8182 4.96346 16.1917 3.90817 16.8566 3.13009C17.5215 2.35201 18.4233 1.91489 19.3636 1.91489H28.0909C28.1632 1.91489 28.2326 1.94852 28.2838 2.00837C28.3349 2.06822 28.3636 2.1494 28.3636 2.23404V22.6596ZM25.6364 7.34043C25.6364 7.59436 25.5502 7.83789 25.3967 8.01744C25.2433 8.197 25.0352 8.29787 24.8182 8.29787H19.3636C19.1466 8.29787 18.9385 8.197 18.7851 8.01744C18.6317 7.83789 18.5455 7.59436 18.5455 7.34043C18.5455 7.08649 18.6317 6.84296 18.7851 6.66341C18.9385 6.48385 19.1466 6.38298 19.3636 6.38298H24.8182C25.0352 6.38298 25.2433 6.48385 25.3967 6.66341C25.5502 6.84296 25.6364 7.08649 25.6364 7.34043ZM25.6364 12.4468C25.6364 12.7007 25.5502 12.9443 25.3967 13.1238C25.2433 13.3034 25.0352 13.4043 24.8182 13.4043H19.3636C19.1466 13.4043 18.9385 13.3034 18.7851 13.1238C18.6317 12.9443 18.5455 12.7007 18.5455 12.4468C18.5455 12.1929 18.6317 11.9493 18.7851 11.7698C18.9385 11.5902 19.1466 11.4894 19.3636 11.4894H24.8182C25.0352 11.4894 25.2433 11.5902 25.3967 11.7698C25.5502 11.9493 25.6364 12.1929 25.6364 12.4468ZM25.6364 17.5532C25.6364 17.8071 25.5502 18.0507 25.3967 18.2302C25.2433 18.4098 25.0352 18.5106 24.8182 18.5106H19.3636C19.1466 18.5106 18.9385 18.4098 18.7851 18.2302C18.6317 18.0507 18.5455 17.8071 18.5455 17.5532C18.5455 17.2993 18.6317 17.0557 18.7851 16.8762C18.9385 16.6966 19.1466 16.5957 19.3636 16.5957H24.8182C25.0352 16.5957 25.2433 16.6966 25.3967 16.8762C25.5502 17.0557 25.6364 17.2993 25.6364 17.5532Z" fill="white"/>
</svg>
