<svg width="28" height="26" viewBox="0 0 28 26" fill="none" xmlns="http://www.w3.org/2000/svg">
<path d="M27.9265 2.35629V2.3737L20.6515 24.6568C20.5414 25.0187 20.3147 25.3407 20.0019 25.5795C19.6891 25.8184 19.3051 25.9627 18.9015 25.993C18.844 25.9977 18.7865 26 18.729 26C18.3508 26.0011 17.9801 25.9017 17.6607 25.7134C17.3413 25.5252 17.0865 25.2561 16.9265 24.9377L12.4627 16.1854C12.4187 16.0988 12.4045 16.0017 12.4222 15.9073C12.4399 15.813 12.4885 15.726 12.5615 15.6583L19.719 9.00963C19.8986 8.83404 19.9973 8.60023 19.994 8.35805C19.9906 8.11586 19.8856 7.88447 19.7011 7.71321C19.5167 7.54195 19.2676 7.44436 19.0068 7.44126C18.7461 7.43816 18.4943 7.52979 18.3053 7.69661L11.1365 14.3442C11.0636 14.4119 10.97 14.4571 10.8684 14.4735C10.7668 14.49 10.6622 14.4768 10.569 14.4359L1.19396 10.311C0.825765 10.1544 0.515907 9.89976 0.303623 9.57943C0.0913392 9.2591 -0.0138215 8.88747 0.00145707 8.51159C0.0218172 8.12527 0.172406 7.75467 0.431935 7.45217C0.691464 7.14968 1.0468 6.9306 1.44771 6.82591L25.4403 0.0692357H25.459C25.8006 -0.0198996 26.1616 -0.0230244 26.505 0.0601818C26.8483 0.143388 27.1616 0.309929 27.4128 0.542719C27.6639 0.775509 27.8439 1.06616 27.9342 1.38487C28.0245 1.70357 28.0218 2.03884 27.9265 2.35629Z" fill="#D7D7D7"/>
</svg>
