<svg width="30" height="30" viewBox="0 0 30 30" fill="none" xmlns="http://www.w3.org/2000/svg">
<path d="M29 8.99244H22.34L23.89 1.21907C23.9417 0.952712 23.886 0.676629 23.735 0.451557C23.584 0.226484 23.3502 0.0708607 23.085 0.0189205C22.8198 -0.0330197 22.5449 0.0229785 22.3208 0.174596C22.0967 0.326214 21.9417 0.561031 21.89 0.827391L20.3 8.99244H12.11L13.66 1.21907C13.6856 1.08718 13.6851 0.951522 13.6585 0.819831C13.6319 0.688141 13.5797 0.563001 13.505 0.451557C13.4302 0.340112 13.3344 0.244546 13.2228 0.170314C13.1113 0.0960822 12.9863 0.0446387 12.855 0.0189205C12.5898 -0.0330197 12.3149 0.0229785 12.0908 0.174596C11.8667 0.326214 11.7117 0.561031 11.66 0.827391L10.07 8.99244H3C2.73478 8.99244 2.48043 9.09825 2.29289 9.28659C2.10536 9.47494 2 9.73039 2 9.99675C2 10.2631 2.10536 10.5186 2.29289 10.7069C2.48043 10.8952 2.73478 11.0011 3 11.0011H9.67L8.07 19.0355H1C0.734784 19.0355 0.48043 19.1414 0.292893 19.3297C0.105357 19.518 0 19.7735 0 20.0399C0 20.3062 0.105357 20.5617 0.292893 20.75C0.48043 20.9384 0.734784 21.0442 1 21.0442H7.66L6.11 28.8175C6.06009 29.0785 6.11521 29.3487 6.26328 29.569C6.41136 29.7892 6.64032 29.9415 6.9 29.9926C6.9663 30.0025 7.0337 30.0025 7.1 29.9926C7.33395 29.9973 7.56214 29.9195 7.74486 29.7727C7.92758 29.6259 8.05325 29.4194 8.1 29.1891L9.7 21.0442H17.89L16.34 28.8175C16.2901 29.0785 16.3452 29.3487 16.4933 29.569C16.6414 29.7892 16.8703 29.9415 17.13 29.9926C17.193 30.0024 17.257 30.0024 17.32 29.9926C17.5539 29.9973 17.7821 29.9195 17.9649 29.7727C18.1476 29.6259 18.2732 29.4194 18.32 29.1891L19.93 21.0442H27C27.2652 21.0442 27.5196 20.9384 27.7071 20.75C27.8946 20.5617 28 20.3062 28 20.0399C28 19.7735 27.8946 19.518 27.7071 19.3297C27.5196 19.1414 27.2652 19.0355 27 19.0355H20.33L21.94 11.0011H29C29.2652 11.0011 29.5196 10.8952 29.7071 10.7069C29.8946 10.5186 30 10.2631 30 9.99675C30 9.73039 29.8946 9.47494 29.7071 9.28659C29.5196 9.09825 29.2652 8.99244 29 8.99244ZM18.29 19.0355H10.1L11.71 11.0011H19.9L18.29 19.0355Z" fill="white"/>
</svg>
