<svg width="26" height="30" viewBox="0 0 26 30" fill="none" xmlns="http://www.w3.org/2000/svg">
<path fill-rule="evenodd" clip-rule="evenodd" d="M25 25V11L15 1H5C3.93913 1 2.92172 1.42143 2.17157 2.17157C1.42143 2.92172 1 3.93913 1 5V25C1 26.0609 1.42143 27.0783 2.17157 27.8284C2.92172 28.5786 3.93913 29 5 29H21C22.0609 29 23.0783 28.5786 23.8284 27.8284C24.5786 27.0783 25 26.0609 25 25Z" stroke="white" stroke-width="2" stroke-linecap="round" stroke-linejoin="round"/>
<path d="M15 1V7C15 8.06087 15.4214 9.07828 16.1716 9.82843C16.9217 10.5786 17.9391 11 19 11H25" stroke="white" stroke-width="2" stroke-linecap="round" stroke-linejoin="round"/>
</svg>
