<svg width="30" height="30" viewBox="0 0 30 30" fill="none" xmlns="http://www.w3.org/2000/svg">
<path d="M22.7154 30C22.3059 29.9997 21.9027 29.8952 21.5408 29.6957L15.3893 26.3252C15.2692 26.2596 15.1356 26.2254 15 26.2254C14.8644 26.2254 14.7308 26.2596 14.6107 26.3252L8.45251 29.6957C8.03682 29.9237 7.56819 30.0259 7.09965 29.9908C6.63111 29.9557 6.18135 29.7846 5.80126 29.4968C5.42117 29.2091 5.1259 28.8162 4.94888 28.3627C4.77185 27.9091 4.72012 27.413 4.79954 26.9304L5.97413 19.7907C5.99713 19.6512 5.98731 19.508 5.94552 19.3733C5.90373 19.2386 5.8312 19.1166 5.73418 19.0176L0.760639 13.961C0.42408 13.6192 0.186013 13.1861 0.0733833 12.7106C-0.0392466 12.2351 -0.0219431 11.7363 0.123335 11.2705C0.268614 10.8047 0.536067 10.3907 0.895425 10.0751C1.25478 9.7596 1.6917 9.55522 2.15672 9.48512L9.03645 8.43568C9.17084 8.41526 9.29846 8.36113 9.40835 8.27796C9.51825 8.19479 9.60713 8.08506 9.66737 7.95818L12.7431 1.46212C12.951 1.02322 13.2725 0.653693 13.6714 0.395312C14.0702 0.13693 14.5304 0 15 0C15.4696 0 15.9298 0.13693 16.3286 0.395312C16.7275 0.653693 17.049 1.02322 17.2569 1.46212L20.3326 7.95818C20.3927 8.08538 20.4814 8.19547 20.5914 8.27895C20.7013 8.36244 20.829 8.41683 20.9636 8.43743L27.8433 9.48687C28.3083 9.55697 28.7452 9.76135 29.1046 10.0769C29.4639 10.3924 29.7314 10.8065 29.8767 11.2723C30.0219 11.738 30.0392 12.2369 29.9266 12.7124C29.814 13.1879 29.5759 13.621 29.2394 13.9627L24.2641 19.0193C24.1668 19.1182 24.094 19.2402 24.0519 19.3748C24.0098 19.5095 23.9997 19.6528 24.0225 19.7924L25.1971 26.9321C25.2592 27.3088 25.2416 27.6952 25.1455 28.064C25.0493 28.4329 24.8771 28.7754 24.6407 29.0677C24.4043 29.3599 24.1095 29.5947 23.7769 29.7558C23.4444 29.9168 23.0821 30.0002 22.7154 30ZM16.1712 24.7773L22.3194 28.1407C22.4579 28.2164 22.614 28.2502 22.77 28.2384C22.926 28.2265 23.0757 28.1694 23.2022 28.0736C23.3287 27.9777 23.427 27.8469 23.486 27.6959C23.5449 27.5449 23.5622 27.3797 23.5359 27.219L22.3613 20.0793C22.2924 19.6598 22.3223 19.2292 22.4486 18.8246C22.5749 18.4199 22.7937 18.0534 23.0862 17.7565L28.0614 12.7017C28.1736 12.5878 28.253 12.4435 28.2905 12.285C28.3281 12.1265 28.3224 11.9603 28.274 11.8051C28.2257 11.6498 28.1366 11.5118 28.0169 11.4066C27.8971 11.3014 27.7516 11.2332 27.5966 11.2097L20.7169 10.1603C20.3128 10.0992 19.929 9.93653 19.5987 9.68636C19.2684 9.43618 19.0014 9.10599 18.8208 8.72427L15.7501 2.24396C15.6748 2.10416 15.5652 1.98777 15.4325 1.90677C15.2998 1.82577 15.1488 1.78308 14.995 1.78308C14.8412 1.78308 14.6902 1.82577 14.5575 1.90677C14.4247 1.98777 14.3151 2.10416 14.2399 2.24396L11.1692 8.74002C10.9884 9.12141 10.7213 9.45125 10.391 9.70111C10.0606 9.95096 9.67697 10.1133 9.27304 10.1743L2.39332 11.2237C2.23835 11.2472 2.09278 11.3153 1.97307 11.4206C1.85336 11.5258 1.76428 11.6638 1.71592 11.819C1.66755 11.9743 1.66183 12.1405 1.6994 12.299C1.73698 12.4574 1.81634 12.6018 1.92851 12.7157L6.90877 17.7652C7.20198 18.063 7.4211 18.4308 7.54712 18.8368C7.67315 19.2428 7.70227 19.6746 7.63198 20.095L6.45739 27.2347C6.43084 27.3957 6.44806 27.5611 6.50708 27.7124C6.56611 27.8637 6.6646 27.9947 6.79139 28.0906C6.91818 28.1866 7.0682 28.2436 7.22447 28.2552C7.38075 28.2669 7.53702 28.2327 7.67561 28.1565L13.8221 24.7773C14.1841 24.5781 14.5873 24.4741 14.9966 24.4741C15.406 24.4741 15.8092 24.5781 16.1712 24.7773Z" fill="white"/>
</svg>
